# MagicaVoxel @ Ephtracy

# group
o Screenshot_1d

# material
mtllib Jackal.mtl
usemtl palette

# normals
vn -1 0 0
vn 1 0 0
vn 0 0 1
vn 0 0 -1
vn 0 -1 0
vn 0 1 0

# texcoords
vt 0.970703 0.5
vt 0.974609 0.5
vt 0.978516 0.5

# verts
v -0.3 4 0.3
v -0.3 4 -0.3
v -0.3 5.4 0.4
v -0.3 5.4 0.3
v -0.3 5.4 -0.3
v -0.3 5.4 -0.4
v -0.3 5.5 0.4
v -0.3 5.5 0.3
v -0.3 5.5 0.2
v -0.3 5.5 -0.2
v -0.3 5.5 -0.3
v -0.3 5.5 -0.4
v -0.3 5.6 0.4
v -0.3 5.6 0.3
v -0.3 5.6 -0.3
v -0.3 5.6 -0.4
v -0.3 5.7 0.4
v -0.3 5.7 0.3
v -0.3 5.7 0.2
v -0.3 5.7 -0.2
v -0.3 5.7 -0.3
v -0.3 5.7 -0.4
v -0.3 5.8 0.3
v -0.3 5.8 0.2
v -0.3 5.8 -0.2
v -0.3 5.8 -0.3
v -0.3 5.9 0.3
v -0.3 5.9 0.2
v -0.3 5.9 -0.2
v -0.3 5.9 -0.3
v -0.2 0.8 0.2
v -0.2 0.8 -0.2
v -0.2 4 0.2
v -0.2 4 -0.2
v -0.2 5.4 0.4
v -0.2 5.4 0.3
v -0.2 5.4 -0.3
v -0.2 5.4 -0.4
v -0.2 5.5 0.4
v -0.2 5.5 0.3
v -0.2 5.5 -0.3
v -0.2 5.5 -0.4
v -0.2 5.6 0.4
v -0.2 5.6 0.3
v -0.2 5.6 0.2
v -0.2 5.6 -0.2
v -0.2 5.6 -0.3
v -0.2 5.6 -0.4
v -0.2 5.7 0.4
v -0.2 5.7 0.3
v -0.2 5.7 0.2
v -0.2 5.7 -0.2
v -0.2 5.7 -0.3
v -0.2 5.7 -0.4
v -0.2 5.8 0.3
v -0.2 5.8 0.2
v -0.2 5.8 -0.2
v -0.2 5.8 -0.3
v -0.2 5.9 0.3
v -0.2 5.9 0.2
v -0.2 5.9 -0.2
v -0.2 5.9 -0.3
v -0.1 5.5 0.3
v -0.1 5.5 0.2
v -0.1 5.5 -0.2
v -0.1 5.5 -0.3
v -0.1 5.6 0.3
v -0.1 5.6 0.2
v -0.1 5.6 -0.2
v -0.1 5.6 -0.3
v 0.2 0.8 0.2
v 0.2 0.8 -0.2
v 0.2 4 0.2
v 0.2 4 -0.2
v 0.3 4 0.3
v 0.3 4 -0.3
v 0.3 5 0.2
v 0.3 5 -0.2
v 0.3 5.2 0.3
v 0.3 5.2 0.2
v 0.3 5.2 -0.2
v 0.3 5.2 -0.3
v 0.3 5.3 0.3
v 0.3 5.3 0.2
v 0.3 5.3 -0.2
v 0.3 5.3 -0.3
v 0.3 5.4 0.3
v 0.3 5.4 0.2
v 0.3 5.4 -0.2
v 0.3 5.4 -0.3
v 0.3 5.5 0.3
v 0.3 5.5 -0.3
v 0.6 5 0.2
v 0.6 5 -0.2
v 0.6 5.1 0.1
v 0.6 5.1 -0.1
v 0.6 5.3 0.2
v 0.6 5.3 0.1
v 0.6 5.3 -0.1
v 0.6 5.3 -0.2
v 0.7 5.1 0.1
v 0.7 5.1 -0.1
v 0.7 5.2 0.1
v 0.7 5.2 -0.1
v 0.8 5.2 0.1
v 0.8 5.2 -0.1
v 0.8 5.3 0.1
v 0.8 5.3 -0.1
v -0.3 5.4 0.4
v -0.3 5.5 0.4
v -0.3 5.6 0.4
v -0.3 5.7 0.4
v -0.2 5.4 0.4
v -0.2 5.5 0.4
v -0.2 5.6 0.4
v -0.2 5.7 0.4
v -0.3 4 0.3
v -0.3 5.4 0.3
v -0.3 5.7 0.3
v -0.3 5.8 0.3
v -0.3 5.9 0.3
v -0.2 5.4 0.3
v -0.2 5.5 0.3
v -0.2 5.6 0.3
v -0.2 5.7 0.3
v -0.2 5.8 0.3
v -0.2 5.9 0.3
v -0.1 5.5 0.3
v -0.1 5.6 0.3
v 0 5.3 0.3
v 0 5.4 0.3
v 0.2 5.2 0.3
v 0.2 5.3 0.3
v 0.2 5.4 0.3
v 0.3 4 0.3
v 0.3 5.2 0.3
v 0.3 5.3 0.3
v 0.3 5.4 0.3
v 0.3 5.5 0.3
v -0.2 0.8 0.2
v -0.2 4 0.2
v 0.2 0.8 0.2
v 0.2 4 0.2
v 0.3 5 0.2
v 0.3 5.2 0.2
v 0.3 5.3 0.2
v 0.6 5 0.2
v 0.6 5.3 0.2
v 0.6 5.1 0.1
v 0.6 5.3 0.1
v 0.7 5.1 0.1
v 0.7 5.2 0.1
v 0.8 5.2 0.1
v 0.8 5.3 0.1
v -0.3 5.5 -0.2
v -0.3 5.7 -0.2
v -0.3 5.8 -0.2
v -0.3 5.9 -0.2
v -0.2 5.6 -0.2
v -0.2 5.7 -0.2
v -0.2 5.8 -0.2
v -0.2 5.9 -0.2
v -0.1 5.5 -0.2
v -0.1 5.6 -0.2
v -0.3 5.5 0.2
v -0.3 5.7 0.2
v -0.3 5.8 0.2
v -0.3 5.9 0.2
v -0.2 5.6 0.2
v -0.2 5.7 0.2
v -0.2 5.8 0.2
v -0.2 5.9 0.2
v -0.1 5.5 0.2
v -0.1 5.6 0.2
v 0.6 5.1 -0.1
v 0.6 5.3 -0.1
v 0.7 5.1 -0.1
v 0.7 5.2 -0.1
v 0.8 5.2 -0.1
v 0.8 5.3 -0.1
v -0.2 0.8 -0.2
v -0.2 4 -0.2
v 0.2 0.8 -0.2
v 0.2 4 -0.2
v 0.3 5 -0.2
v 0.3 5.2 -0.2
v 0.3 5.3 -0.2
v 0.6 5 -0.2
v 0.6 5.3 -0.2
v -0.3 4 -0.3
v -0.3 5.4 -0.3
v -0.3 5.7 -0.3
v -0.3 5.8 -0.3
v -0.3 5.9 -0.3
v -0.2 5.4 -0.3
v -0.2 5.5 -0.3
v -0.2 5.6 -0.3
v -0.2 5.7 -0.3
v -0.2 5.8 -0.3
v -0.2 5.9 -0.3
v -0.1 5.5 -0.3
v -0.1 5.6 -0.3
v 0 5.3 -0.3
v 0 5.4 -0.3
v 0.2 5.2 -0.3
v 0.2 5.3 -0.3
v 0.2 5.4 -0.3
v 0.3 4 -0.3
v 0.3 5.2 -0.3
v 0.3 5.3 -0.3
v 0.3 5.4 -0.3
v 0.3 5.5 -0.3
v -0.3 5.4 -0.4
v -0.3 5.5 -0.4
v -0.3 5.6 -0.4
v -0.3 5.7 -0.4
v -0.2 5.4 -0.4
v -0.2 5.5 -0.4
v -0.2 5.6 -0.4
v -0.2 5.7 -0.4
v -0.2 0.8 0.2
v 0.2 0.8 0.2
v -0.2 0.8 -0.2
v 0.2 0.8 -0.2
v -0.3 4 0.3
v 0.3 4 0.3
v -0.2 4 0.2
v 0.2 4 0.2
v -0.2 4 -0.2
v 0.2 4 -0.2
v -0.3 4 -0.3
v 0.3 4 -0.3
v 0.3 5 0.2
v 0.6 5 0.2
v 0.3 5 -0.2
v 0.6 5 -0.2
v 0.6 5.1 0.1
v 0.7 5.1 0.1
v 0.6 5.1 -0.1
v 0.7 5.1 -0.1
v 0.7 5.2 0.1
v 0.8 5.2 0.1
v 0.7 5.2 -0.1
v 0.8 5.2 -0.1
v -0.3 5.4 0.4
v -0.2 5.4 0.4
v -0.3 5.4 0.3
v -0.2 5.4 0.3
v -0.3 5.4 -0.3
v -0.2 5.4 -0.3
v -0.3 5.4 -0.4
v -0.2 5.4 -0.4
v 0.3 5.3 0.2
v 0.6 5.3 0.2
v 0.6 5.3 0.1
v 0.8 5.3 0.1
v 0.6 5.3 -0.1
v 0.8 5.3 -0.1
v 0.3 5.3 -0.2
v 0.6 5.3 -0.2
v -0.1 5.5 0.3
v 0.3 5.5 0.3
v -0.3 5.5 0.2
v -0.1 5.5 0.2
v -0.3 5.5 -0.2
v -0.1 5.5 -0.2
v -0.1 5.5 -0.3
v 0.3 5.5 -0.3
v -0.2 5.6 0.3
v -0.1 5.6 0.3
v -0.2 5.6 0.2
v -0.1 5.6 0.2
v -0.2 5.6 -0.2
v -0.1 5.6 -0.2
v -0.2 5.6 -0.3
v -0.1 5.6 -0.3
v -0.3 5.7 0.4
v -0.2 5.7 0.4
v -0.3 5.7 0.3
v -0.2 5.7 0.3
v -0.3 5.7 -0.3
v -0.2 5.7 -0.3
v -0.3 5.7 -0.4
v -0.2 5.7 -0.4
v -0.3 5.9 0.3
v -0.2 5.9 0.3
v -0.3 5.9 0.2
v -0.2 5.9 0.2
v -0.3 5.9 -0.2
v -0.2 5.9 -0.2
v -0.3 5.9 -0.3
v -0.2 5.9 -0.3

# faces
f 4/2/1 2/2/1 1/2/1
f 5/2/1 2/2/1 4/2/1
f 7/2/1 4/2/1 3/2/1
f 7/2/1 6/2/1 5/2/1
f 7/2/1 5/2/1 4/2/1
f 8/2/1 6/2/1 7/2/1
f 9/2/1 6/2/1 8/2/1
f 10/2/1 6/2/1 9/2/1
f 11/2/1 6/2/1 10/2/1
f 12/2/1 6/2/1 11/2/1
f 13/3/1 8/3/1 7/3/1
f 14/2/1 9/2/1 8/2/1
f 14/3/1 8/3/1 13/3/1
f 15/3/1 12/3/1 11/3/1
f 15/2/1 11/2/1 10/2/1
f 16/3/1 12/3/1 15/3/1
f 17/2/1 14/2/1 13/2/1
f 18/2/1 9/2/1 14/2/1
f 18/2/1 14/2/1 17/2/1
f 19/2/1 9/2/1 18/2/1
f 20/2/1 15/2/1 10/2/1
f 20/2/1 16/2/1 15/2/1
f 21/2/1 16/2/1 20/2/1
f 22/2/1 16/2/1 21/2/1
f 23/3/1 19/3/1 18/3/1
f 24/3/1 19/3/1 23/3/1
f 25/3/1 21/3/1 20/3/1
f 26/3/1 21/3/1 25/3/1
f 27/2/1 24/2/1 23/2/1
f 28/2/1 24/2/1 27/2/1
f 29/2/1 26/2/1 25/2/1
f 30/2/1 26/2/1 29/2/1
f 33/2/1 32/2/1 31/2/1
f 34/2/1 32/2/1 33/2/1
f 35/2/2 36/2/2 39/2/2
f 39/2/2 36/2/2 40/2/2
f 37/2/2 38/2/2 41/2/2
f 41/2/2 38/2/2 42/2/2
f 39/3/2 40/3/2 43/3/2
f 43/3/2 40/3/2 44/3/2
f 41/3/2 42/3/2 47/3/2
f 47/3/2 42/3/2 48/3/2
f 44/2/2 45/2/2 49/2/2
f 43/2/2 44/2/2 49/2/2
f 49/2/2 45/2/2 50/2/2
f 50/2/2 45/2/2 51/2/2
f 47/2/2 48/2/2 52/2/2
f 46/2/2 47/2/2 52/2/2
f 52/2/2 48/2/2 53/2/2
f 53/2/2 48/2/2 54/2/2
f 50/3/2 51/3/2 55/3/2
f 55/3/2 51/3/2 56/3/2
f 52/3/2 53/3/2 57/3/2
f 57/3/2 53/3/2 58/3/2
f 55/2/2 56/2/2 59/2/2
f 59/2/2 56/2/2 60/2/2
f 57/2/2 58/2/2 61/2/2
f 61/2/2 58/2/2 62/2/2
f 63/2/2 64/2/2 67/2/2
f 67/2/2 64/2/2 68/2/2
f 65/2/2 66/2/2 69/2/2
f 69/2/2 66/2/2 70/2/2
f 71/2/2 72/2/2 73/2/2
f 73/2/2 72/2/2 74/2/2
f 75/2/2 76/2/2 77/2/2
f 77/2/2 76/2/2 78/2/2
f 75/2/2 77/2/2 79/2/2
f 79/2/2 77/2/2 80/2/2
f 78/2/2 76/2/2 81/2/2
f 81/2/2 76/2/2 82/2/2
f 79/3/2 80/3/2 83/3/2
f 83/3/2 80/3/2 84/3/2
f 81/3/2 82/3/2 85/3/2
f 85/3/2 82/3/2 86/3/2
f 83/1/2 84/1/2 87/1/2
f 84/2/2 85/2/2 88/2/2
f 87/1/2 84/1/2 88/1/2
f 85/1/2 86/1/2 89/1/2
f 88/2/2 85/2/2 89/2/2
f 89/1/2 86/1/2 90/1/2
f 87/2/2 88/2/2 91/2/2
f 88/2/2 89/2/2 91/2/2
f 89/2/2 90/2/2 91/2/2
f 91/2/2 90/2/2 92/2/2
f 93/2/2 94/2/2 95/2/2
f 95/2/2 94/2/2 96/2/2
f 93/2/2 95/2/2 97/2/2
f 97/2/2 95/2/2 98/2/2
f 96/2/2 94/2/2 99/2/2
f 99/2/2 94/2/2 100/2/2
f 101/2/2 102/2/2 103/2/2
f 103/2/2 102/2/2 104/2/2
f 105/2/2 106/2/2 107/2/2
f 107/2/2 106/2/2 108/2/2
f 113/2/3 110/2/3 109/2/3
f 114/3/3 111/3/3 110/3/3
f 114/2/3 110/2/3 113/2/3
f 115/2/3 112/2/3 111/2/3
f 115/3/3 111/3/3 114/3/3
f 116/2/3 112/2/3 115/2/3
f 122/2/3 118/2/3 117/2/3
f 125/3/3 120/3/3 119/3/3
f 126/2/3 121/2/3 120/2/3
f 126/3/3 120/3/3 125/3/3
f 127/2/3 121/2/3 126/2/3
f 128/2/3 124/2/3 123/2/3
f 128/2/3 123/2/3 122/2/3
f 129/2/3 124/2/3 128/2/3
f 130/2/3 122/2/3 117/2/3
f 130/2/3 128/2/3 122/2/3
f 131/2/3 128/2/3 130/2/3
f 132/2/3 130/2/3 117/2/3
f 133/3/3 131/3/3 130/3/3
f 133/2/3 130/2/3 132/2/3
f 134/2/3 128/2/3 131/2/3
f 134/3/3 131/3/3 133/3/3
f 135/2/3 132/2/3 117/2/3
f 136/3/3 133/3/3 132/3/3
f 136/2/3 132/2/3 135/2/3
f 137/1/3 134/1/3 133/1/3
f 137/3/3 133/3/3 136/3/3
f 138/2/3 128/2/3 134/2/3
f 138/1/3 134/1/3 137/1/3
f 139/2/3 128/2/3 138/2/3
f 142/2/3 141/2/3 140/2/3
f 143/2/3 141/2/3 142/2/3
f 147/2/3 145/2/3 144/2/3
f 147/2/3 146/2/3 145/2/3
f 148/2/3 146/2/3 147/2/3
f 151/2/3 150/2/3 149/2/3
f 152/2/3 150/2/3 151/2/3
f 153/2/3 150/2/3 152/2/3
f 154/2/3 150/2/3 153/2/3
f 159/2/3 156/2/3 155/2/3
f 160/3/3 157/3/3 156/3/3
f 160/2/3 156/2/3 159/2/3
f 161/2/3 158/2/3 157/2/3
f 161/3/3 157/3/3 160/3/3
f 162/2/3 158/2/3 161/2/3
f 163/2/3 159/2/3 155/2/3
f 164/2/3 159/2/3 163/2/3
f 165/2/4 166/2/4 169/2/4
f 166/3/4 167/3/4 170/3/4
f 169/2/4 166/2/4 170/2/4
f 167/2/4 168/2/4 171/2/4
f 170/3/4 167/3/4 171/3/4
f 171/2/4 168/2/4 172/2/4
f 165/2/4 169/2/4 173/2/4
f 173/2/4 169/2/4 174/2/4
f 175/2/4 176/2/4 177/2/4
f 177/2/4 176/2/4 178/2/4
f 178/2/4 176/2/4 179/2/4
f 179/2/4 176/2/4 180/2/4
f 181/2/4 182/2/4 183/2/4
f 183/2/4 182/2/4 184/2/4
f 185/2/4 186/2/4 188/2/4
f 186/2/4 187/2/4 188/2/4
f 188/2/4 187/2/4 189/2/4
f 190/2/4 191/2/4 195/2/4
f 192/3/4 193/3/4 198/3/4
f 193/2/4 194/2/4 199/2/4
f 198/3/4 193/3/4 199/3/4
f 199/2/4 194/2/4 200/2/4
f 196/2/4 197/2/4 201/2/4
f 195/2/4 196/2/4 201/2/4
f 201/2/4 197/2/4 202/2/4
f 190/2/4 195/2/4 203/2/4
f 195/2/4 201/2/4 203/2/4
f 203/2/4 201/2/4 204/2/4
f 190/2/4 203/2/4 205/2/4
f 203/3/4 204/3/4 206/3/4
f 205/2/4 203/2/4 206/2/4
f 204/2/4 201/2/4 207/2/4
f 206/3/4 204/3/4 207/3/4
f 190/2/4 205/2/4 208/2/4
f 205/3/4 206/3/4 209/3/4
f 208/2/4 205/2/4 209/2/4
f 206/1/4 207/1/4 210/1/4
f 209/3/4 206/3/4 210/3/4
f 207/2/4 201/2/4 211/2/4
f 210/1/4 207/1/4 211/1/4
f 211/2/4 201/2/4 212/2/4
f 213/2/4 214/2/4 217/2/4
f 214/3/4 215/3/4 218/3/4
f 217/2/4 214/2/4 218/2/4
f 215/2/4 216/2/4 219/2/4
f 218/3/4 215/3/4 219/3/4
f 219/2/4 216/2/4 220/2/4
f 223/2/5 222/2/5 221/2/5
f 224/2/5 222/2/5 223/2/5
f 227/2/5 226/2/5 225/2/5
f 228/2/5 226/2/5 227/2/5
f 229/2/5 227/2/5 225/2/5
f 230/2/5 226/2/5 228/2/5
f 231/2/5 229/2/5 225/2/5
f 231/2/5 230/2/5 229/2/5
f 232/2/5 226/2/5 230/2/5
f 232/2/5 230/2/5 231/2/5
f 235/2/5 234/2/5 233/2/5
f 236/2/5 234/2/5 235/2/5
f 239/2/5 238/2/5 237/2/5
f 240/2/5 238/2/5 239/2/5
f 243/2/5 242/2/5 241/2/5
f 244/2/5 242/2/5 243/2/5
f 247/2/5 246/2/5 245/2/5
f 248/2/5 246/2/5 247/2/5
f 251/2/5 250/2/5 249/2/5
f 252/2/5 250/2/5 251/2/5
f 253/2/6 254/2/6 255/2/6
f 253/2/6 255/2/6 257/2/6
f 255/2/6 256/2/6 257/2/6
f 257/2/6 256/2/6 258/2/6
f 253/2/6 257/2/6 259/2/6
f 259/2/6 257/2/6 260/2/6
f 261/2/6 262/2/6 264/2/6
f 263/2/6 264/2/6 265/2/6
f 264/2/6 262/2/6 266/2/6
f 265/2/6 264/2/6 266/2/6
f 266/2/6 262/2/6 267/2/6
f 267/2/6 262/2/6 268/2/6
f 269/2/6 270/2/6 271/2/6
f 271/2/6 270/2/6 272/2/6
f 273/2/6 274/2/6 275/2/6
f 275/2/6 274/2/6 276/2/6
f 277/2/6 278/2/6 279/2/6
f 279/2/6 278/2/6 280/2/6
f 281/2/6 282/2/6 283/2/6
f 283/2/6 282/2/6 284/2/6
f 285/2/6 286/2/6 287/2/6
f 287/2/6 286/2/6 288/2/6
f 289/2/6 290/2/6 291/2/6
f 291/2/6 290/2/6 292/2/6
